<?xml version="1.0" encoding="utf-8"?>
<!-- Generator: Adobe Illustrator 15.1.0, SVG Export Plug-In . SVG Version: 6.00 Build 0)  -->
<!DOCTYPE svg PUBLIC "-//W3C//DTD SVG 1.1//EN" "http://www.w3.org/Graphics/SVG/1.1/DTD/svg11.dtd">
<svg version="1.1" id="Layer_1" xmlns="http://www.w3.org/2000/svg" xmlns:xlink="http://www.w3.org/1999/xlink" x="0px" y="0px"
	 width="504.109px" height="86.784px" viewBox="0 0 504.109 86.784" enable-background="new 0 0 504.109 86.784"
	 xml:space="preserve">
<path fill="#40B97C" d="M504.109,25.417h-3.35l-0.102-0.658c-1.145-7.469-3.764-10.439-5.853-12.331
	c-1.868-1.702-5.743-2.631-15.161-2.606h-5.062v62.913c-0.031,4.586,0.977,7.239,2.07,8.032c1.188,0.934,4.125,1.761,9.007,2.09
	l0.72,0.062v2.568h-39.891V82.92l0.72-0.062c5.076-0.357,8.206-1.293,9.109-2.301c0.95-0.893,1.704-4.087,1.67-9.239V9.821h-7.636
	c-6.662-0.008-10.312,0.985-12.509,2.75c-2.23,1.761-4.758,5.821-5.94,12.21l-0.127,0.635h-3.694l1.812-21.505l0.058-0.71h72.788
	L504.109,25.417z M57.205,71.621c4.61-5.836,7.008-15.362,6.997-28.603c0.011-13.418-2.42-22.989-7.081-28.763
	c-4.738-5.866-10.204-8.699-16.567-8.709c-6.601,0.011-12.121,2.947-16.769,9.024c-4.578,6.01-6.955,15.484-6.945,28.447
	c-0.01,12.912,2.355,22.367,6.925,28.37c4.625,6.083,10.149,9.021,16.789,9.024C47.034,80.408,52.52,77.541,57.205,71.621
	 M68.93,11.085c8.347,8.001,12.517,18.706,12.511,31.934c0.006,13.412-4.305,24.224-12.932,32.222
	C60.8,82.383,51.418,85.965,40.521,85.956h-0.036c-11.643,0-21.415-3.979-29.118-11.884c-7.843-8.065-11.77-18.48-11.763-31.054
	C-0.408,29.79,3.786,19.063,12.166,11.031l0.54,0.562l-0.535-0.562C19.837,3.679,29.349-0.015,40.52,0
	C51.732-0.015,61.261,3.713,68.93,11.085 M143.073,24.986v-0.127c-0.113-9.118-3.795-13.425-9.091-15.419
	c-3.119-1.156-7.037-1.261-10.831-1.261h-0.165c-2.125,0.009-3.266,0.548-3.972,1.397c-0.709,0.849-1.034,2.228-1.034,4.054v27.223
	l7.268-0.167c3.935-0.062,7.812-1.335,10.376-2.63C139.979,35.899,143.08,30.831,143.073,24.986 M119.106,78.655
	c0.876,0.485,3.648,0.86,7.932,0.838c6.145-0.02,8.736-1.133,12.94-3.531c3.925-2.261,6.793-7.131,6.798-13.793
	c-0.028-6.564-3.098-10.367-7.836-12.815c-4.681-2.409-14.108-3.69-16.147-3.67h-3.55c-0.359,0-0.719-0.014-1.262-0.035v29.624
	C117.986,77.34,118.338,78.286,119.106,78.655 M156.937,48.887c4.103,3.225,6.824,7.392,6.818,13.335
	c0.029,9.777-4.665,16.762-13.738,20.4c-4.837,1.933-12.831,2.855-19.711,2.855H89.7v-3.403l0.735-0.042
	c4.847-0.26,7.939-1.086,9.061-2.095c1.082-0.848,1.931-4.034,1.898-8.486V17.088c0.044-4.399-0.822-8.054-1.902-8.908
	c-1.131-1.039-4.204-1.881-9.044-2.092L89.7,6.046V3.054h35.005c9.868,0.008,19.38,1.72,25.331,4.966
	c5.918,3.189,9.807,8.21,9.772,16.793c0,6.141-3.947,10.606-8.806,13.792c-1.931,1.272-4.456,2.537-7.696,3.567
	C148.271,43.708,153.462,46.128,156.937,48.887 M231.501,3.202v2.855L230.768,6.1c-4.675,0.24-8.296,1.198-9.347,2.318
	c-1.142,1.114-1.904,3.771-1.886,7.917v45.049c0.004,8.412-3.139,14.726-7.23,18.809c-4.143,4.182-10.686,6.577-16.723,6.591
	c-6.53,0-11.207-1.253-14.31-3.44c-3.119-2.17-4.562-5.345-4.553-8.792c-0.009-2.559,1.182-4.36,2.701-5.412
	c1.517-1.052,3.301-1.433,4.716-1.433c0.349,0,0.688,0.023,1.005,0.077c3.024,0.508,5.702,2.743,7.097,6.344
	c0.638,1.667,1.208,3.81,2.081,5.48c0.901,1.698,1.938,2.764,3.565,2.764c0.234,0,0.481-0.02,0.745-0.062
	c0.998-0.08,2.737-2.252,3.238-3.516c0.537-1.188,0.866-3.564,0.859-6.979v-55.48c0.041-4.521-0.461-7.287-1.564-8.147
	c-1.116-1.028-4.757-1.878-9.313-2.087l-0.739-0.035V3.202H231.501z M318.136,63.047l-0.2,0.458
	c-3.047,6.771-8.062,11.978-11.712,13.646c-3.881,1.774-7.472,3.343-19.787,3.363c-7.586-0.012-9.919-0.573-11.375-0.985
	c-0.872-0.244-1.483-0.32-2.054-1.051c-0.586-0.745-1.17-2.411-1.17-5.977l-0.139-27.104h14.737c5.042-0.008,9.685,1.041,12.23,3.14
	c1.403,1.138,3.185,4.012,4.064,8.594l0.118,0.624h3.217v-30.34h-2.963l-0.13,0.647c-0.849,4.596-2.1,7.162-3.362,8.517
	c-1.233,1.327-3.716,2.804-10.524,2.804H271.69V12.719c0.009-2.121,1.749-3.301,3.14-3.31h15.298
	c6.981-0.031,12.965,1.498,14.676,2.85c1.995,1.542,4.834,4.153,5.819,9.265l0.118,0.634h3.351L313.65,3.202h-67.976v3.066
	l0.724,0.042c4.444,0.317,6.33,1.125,7.426,2.241c1.029,0.981,1.748,3.659,1.729,7.903v55.546c0.028,4.489-0.745,7.184-1.709,7.931
	c-1.139,0.964-3.063,1.735-7.479,2.203l-0.691,0.073v3.28h69.886l5.92-22.441H318.136z M423.913,82.667
	c-6.851,0.055-12.479-6.271-19.368-13.302l-28.843-31.197l21.858-22.551c3.857-3.659,7.162-5.31,9.387-6.421
	c2.07-1.028,6.324-2.037,10.122-2.406l0.698-0.065V3.202h-35.422v3.722h1.157c2.239-0.006,4.028,0.042,5.453,0.689
	c1.179,0.542,1.801,1.657,1.825,3.119c0,1.262-0.522,2.751-1.635,4.065c-4.955,5.864-19.459,21.98-27.202,28.983V16.824
	c-0.021-4.276,0.743-6.952,1.843-7.976c1-1.056,4.535-1.954,9.198-2.145l0.745-0.043v-3.46h-39v3.445l0.73,0.058
	c4.581,0.282,7.479,1.156,8.486,2.187c1.031,0.943,1.772,3.639,1.753,7.957v55.401c0.011,4.232-0.5,6.659-1.818,7.924
	c-1.29,1.318-3.824,1.88-8.367,1.865h-0.784v3.45h38.862v-3.074h-0.773c-5.427,0-7.376-0.819-8.521-1.838
	c-1.113-0.955-2.363-3.47-2.354-8.741V45.796l0.263,0.26l24.637,26.204c1.717,1.824,4.924,4.923,4.848,7.372
	c-0.012,1.325-1.198,2.721-5.43,2.771h-2.315h-0.775v3.087h41.517v-2.821L423.913,82.667L423.913,82.667z"/>
</svg>
